<svg xmlns="http://www.w3.org/2000/svg" width="50.000000pt" height="50.000000pt" viewBox="0 0 500 500"><defs><style>.a{fill:#22a813;}.b{fill:#fff;}</style></defs><g transform="translate(-235 -183)"><g transform="translate(235 183)"><circle class="a" cx="250" cy="250" r="250"/></g><g transform="translate(225 186.051)"><path class="b" d="M336.99,180.343a84.2,84.2,0,0,0-166.764,16.605c0,1.936.1,3.871.2,5.909A50.56,50.56,0,0,0,125.3,253.079a49.811,49.811,0,0,0,2.241,14.262,5.56,5.56,0,0,0,6.927,3.769,27.589,27.589,0,0,1,7.64-1.222H310.6a27.79,27.79,0,0,1,27.913,27.1,5.627,5.627,0,0,0,2.139,4.177,5.533,5.533,0,0,0,3.464,1.222,4.179,4.179,0,0,0,1.121-.1,61.916,61.916,0,0,0,49.51-60.512c.1-32.4-25.061-59.086-57.761-61.429ZM310.6,337.226H142.211A16.825,16.825,0,0,0,125.4,354.035V365.24a16.825,16.825,0,0,0,16.809,16.809h168.5a16.825,16.825,0,0,0,16.809-16.809V354.035A16.979,16.979,0,0,0,310.6,337.226Zm-157.188,33.72a5.6,5.6,0,1,1,5.6-5.6A5.653,5.653,0,0,1,153.417,370.945Zm145.982,0H254.474a5.6,5.6,0,1,1,0-11.206H299.4a5.6,5.6,0,1,1,0,11.206Zm0,0" transform="translate(0 0)"/><path class="b" d="M310.6,278H142.209A16.825,16.825,0,0,0,125.4,294.809v11.206a16.825,16.825,0,0,0,16.809,16.809H310.7a16.825,16.825,0,0,0,16.809-16.809V294.809A16.979,16.979,0,0,0,310.6,278ZM153.415,311.72a5.6,5.6,0,1,1,5.6-5.6A5.653,5.653,0,0,1,153.415,311.72Zm145.982,0H254.472a5.6,5.6,0,1,1,0-11.206H299.4a5.6,5.6,0,1,1,0,11.206Zm0,0" transform="translate(0.002 3.094)"/></g></g></svg>