<?xml version="1.0" standalone="no"?>
<!DOCTYPE svg PUBLIC "-//W3C//DTD SVG 20010904//EN"
 "http://www.w3.org/TR/2001/REC-SVG-20010904/DTD/svg10.dtd">
<svg version="1.0" xmlns="http://www.w3.org/2000/svg"
 width="50.000000pt" height="50.000000pt" viewBox="0 0 512.000000 512.000000"
 preserveAspectRatio="xMidYMid meet">

<g transform="translate(0.000000,512.000000) scale(0.100000,-0.100000)"
fill="#E65B25" stroke="none">
<path d="M1320 4790 c-354 -25 -559 -118 -760 -347 -112 -128 -181 -286 -216
-493 -16 -95 -18 -218 -22 -1275 -4 -1189 1 -1413 33 -1568 48 -230 142 -389
322 -547 131 -115 289 -183 503 -217 107 -17 207 -18 1380 -18 1172 0 1273 1
1379 18 275 44 448 136 621 334 112 128 181 286 216 493 16 95 18 218 22 1275
4 1189 -1 1413 -33 1568 -48 230 -142 389 -322 547 -128 112 -286 182 -493
216 -96 16 -214 18 -1315 20 -665 1 -1257 -2 -1315 -6z m530 -835 l0 -65 55 0
55 0 0 65 0 65 75 0 75 0 0 -205 0 -205 -75 0 -75 0 0 65 0 65 -55 0 -55 0 0
-65 0 -65 -75 0 -75 0 0 205 0 205 75 0 75 0 0 -65z m680 -11 l0 -76 -55 4
-55 3 0 -132 0 -133 -75 0 -75 0 0 130 0 129 -57 3 -58 3 -3 73 -3 72 191 0
190 0 0 -76z m237 11 l39 -64 38 64 38 65 79 0 79 0 0 -205 0 -205 -75 0 -75
0 0 88 0 87 -38 -57 c-20 -32 -41 -58 -47 -58 -5 0 -27 26 -47 58 l-38 57 0
-87 0 -88 -75 0 -75 0 0 205 0 205 79 0 78 0 40 -65z m465 -66 l3 -131 90 -2
90 -1 3 -72 3 -73 -166 0 -165 0 0 205 0 205 70 0 69 0 3 -131z m384 -481
c-10 -77 -27 -241 -36 -358 -11 -140 -35 -412 -54 -615 -8 -82 -20 -208 -26
-280 -6 -71 -15 -175 -21 -230 -5 -55 -16 -181 -24 -280 -30 -353 -24 -327
-75 -337 -14 -3 -182 -49 -375 -103 -192 -53 -371 -103 -396 -110 -41 -11 -55
-10 -130 11 -194 54 -456 127 -574 159 -184 50 -205 56 -205 64 0 4 -4 54 -10
112 -5 57 -19 208 -30 334 -11 127 -29 331 -40 455 -12 124 -25 273 -30 333
-6 59 -15 158 -20 220 -6 61 -15 166 -20 232 -6 66 -17 187 -25 269 -8 82 -15
153 -15 157 0 5 473 9 1056 9 l1055 0 -5 -42z"/>
<path d="M1920 2975 c0 -13 4 -68 10 -122 5 -54 14 -150 19 -213 6 -63 16
-170 22 -238 6 -67 12 -133 13 -147 l1 -25 453 0 452 0 0 -37 c0 -41 -28 -305
-33 -309 -2 -2 -69 -21 -150 -43 -121 -32 -153 -38 -180 -30 -17 6 -81 23
-141 39 -60 16 -113 35 -117 42 -4 6 -11 56 -15 110 l-7 98 -124 0 -124 0 6
-82 c4 -46 11 -119 16 -163 5 -44 9 -98 9 -120 l0 -40 198 -54 c108 -29 227
-62 263 -73 75 -22 44 -27 369 62 124 34 228 66 231 72 3 5 9 49 12 96 4 48
15 188 27 312 11 124 23 258 26 298 l7 72 -475 0 -475 0 -6 45 c-4 25 -10 88
-13 140 l-7 95 500 0 500 0 7 73 c4 39 9 93 13 120 l6 47 -647 0 -646 0 0 -25z"/>
</g>
</svg>
