<?xml version="1.0" standalone="no"?>
<!DOCTYPE svg PUBLIC "-//W3C//DTD SVG 20010904//EN"
 "http://www.w3.org/TR/2001/REC-SVG-20010904/DTD/svg10.dtd">
<svg version="1.0" xmlns="http://www.w3.org/2000/svg"
 width="50.000000pt" height="50.000000pt" viewBox="0 0 1600.000000 1600.000000"
 preserveAspectRatio="xMidYMid meet">

<g transform="translate(0.000000,1600.000000) scale(0.100000,-0.100000)"
fill="#000000" stroke="none">
<path d="M7710 15993 c-1581 -50 -3132 -584 -4405 -1517 -780 -571 -1476
-1300 -2000 -2096 -1057 -1605 -1488 -3526 -1229 -5480 130 -981 472 -1988
970 -2856 779 -1359 1982 -2501 3365 -3195 969 -485 1957 -752 3069 -830 211
-15 816 -15 1030 0 1078 73 2042 327 2985 785 1018 494 1940 1224 2692 2132
989 1193 1613 2688 1767 4234 53 529 53 1139 0 1665 -106 1058 -432 2098 -950
3031 -700 1264 -1784 2364 -3039 3084 -1285 736 -2734 1092 -4255 1043z m727
-3363 c871 -99 1618 -389 2293 -888 922 -683 1554 -1689 1774 -2827 69 -358
86 -531 86 -875 0 -371 -29 -627 -111 -1000 -295 -1334 -1166 -2467 -2384
-3101 -485 -252 -1016 -414 -1608 -489 -206 -26 -770 -29 -967 -5 -580 71
-1077 215 -1555 450 -727 358 -1368 927 -1830 1625 -384 580 -611 1188 -726
1945 -30 197 -39 810 -15 1026 29 252 84 538 151 781 310 1120 1069 2113 2082
2726 163 99 490 262 653 325 374 146 778 248 1168 297 219 27 205 26 527 28
232 2 325 -2 462 -18z"/>
<path d="M7390 12024 c-695 -83 -1317 -323 -1831 -705 -317 -236 -624 -553
-868 -894 l-72 -100 603 -6 c646 -6 716 -11 794 -60 58 -35 71 -83 32 -118
-41 -39 -246 -93 -463 -122 -49 -7 -92 -13 -93 -15 -5 -4 573 -1715 1149
-3399 133 -390 248 -729 254 -753 l11 -43 222 653 c122 359 316 933 432 1274
l210 621 -76 204 c-150 405 -234 631 -385 1042 -85 229 -155 413 -157 408 -6
-18 -331 49 -435 90 -84 33 -117 63 -117 107 0 21 7 48 16 60 50 72 246 102
439 67 117 -21 1294 -21 1440 0 125 18 257 18 356 1 117 -21 169 -56 169 -112
0 -96 -167 -172 -448 -205 l-113 -13 7 -31 c8 -34 214 -641 364 -1070 56 -159
121 -346 145 -415 50 -144 193 -551 361 -1025 64 -181 208 -608 321 -948 113
-340 206 -617 208 -615 2 1 40 129 85 283 45 154 136 460 202 680 255 844 290
965 334 1140 65 264 65 258 10 414 -66 186 -410 1113 -574 1546 -70 185 -87
260 -86 385 2 208 86 398 239 539 106 96 208 140 349 150 l88 6 -124 103
c-246 203 -475 355 -741 491 -422 216 -892 348 -1392 391 -173 14 -725 11
-865 -6z"/>
<path d="M11577 9538 c-5 -347 -14 -439 -62 -693 -47 -247 -90 -383 -305 -960
-45 -121 -112 -303 -150 -405 -38 -102 -110 -295 -160 -430 -187 -501 -348
-942 -482 -1325 -132 -379 -318 -928 -315 -931 5 -6 250 149 360 227 293 210
639 534 821 769 445 576 673 1176 753 1980 19 198 21 493 4 670 -47 475 -209
996 -434 1388 l-25 44 -5 -334z"/>
<path d="M4323 9452 c-95 -222 -182 -518 -223 -758 -40 -235 -53 -427 -47
-734 7 -380 38 -637 113 -942 208 -846 649 -1491 1374 -2008 170 -121 525
-327 662 -385 l38 -15 -15 37 c-8 21 -61 166 -119 323 -414 1130 -1011 2721
-1481 3950 -35 91 -104 273 -155 405 -50 132 -92 241 -94 242 -2 2 -26 -50
-53 -115z"/>
<path d="M8036 7660 c-3 -8 -50 -143 -105 -300 -114 -327 -230 -647 -362
-1005 -79 -214 -679 -1986 -679 -2005 0 -4 48 -21 108 -38 631 -185 1204 -206
1769 -67 138 34 361 107 460 151 48 21 52 25 44 46 -5 13 -35 88 -66 168 -71
181 -226 589 -312 820 -123 333 -245 666 -293 800 -116 326 -333 896 -453
1190 -108 264 -105 257 -111 240z"/>
</g>
</svg>
